<svg width="64" height="64" viewBox="0 0 64 64" fill="none" xmlns="http://www.w3.org/2000/svg">
<path d="M18.6667 20.6933V43.3333H29.5467L31.1467 40.9067C34.24 36.1333 39.8133 34 43.92 34C45.3333 34 46.5333 34.24 47.44 34.6667C49.8667 35.76 50.5333 37.8133 50.6667 39.3067C50.88 42.32 49.3333 45.4133 46.6667 47.2267C44.2667 48.88 38.5067 50.6667 31.6533 50.6667C26.9867 50.6667 20.2933 49.84 13.6533 46.1333C14.4267 39.6 16 29.0133 18.6667 20.6933ZM18.6667 8C10.6667 18.9067 8 48.9067 8 48.9067C15.7333 54.16 24.2133 56 31.6533 56C39.6267 56 46.3733 53.8933 49.7067 51.6267C57.7067 46.1867 58.5067 33.8933 49.7067 29.8133C48 29.04 46.0267 28.6667 43.92 28.6667C37.7867 28.6667 30.6667 31.8933 26.6667 38H24V18.9067H29.3333L32 10.6667L18.6667 8Z" fill="black"/>
</svg>
