<svg width="30" height="32" viewBox="0 0 30 32" fill="none" xmlns="http://www.w3.org/2000/svg">
<g id="simple-icons:v" clip-path="url(#clip0_2217_42)">
<path id="Vector" d="M19.4787 31.3294C19.5624 31.5854 19.4249 31.7934 19.1699 31.7934H11.3424C10.8324 31.7934 10.2799 31.3788 10.1074 30.8668L0.0536954 1.04542C-0.131305 0.522751 0.186195 0.153418 0.659945 0.213418L8.64995 1.03475C9.1562 1.08675 9.70495 1.54542 9.87245 2.05742L19.4774 31.3281L19.4787 31.3294ZM29.3412 0.213418L21.3512 1.03475C20.8437 1.08675 20.2962 1.54542 20.1287 2.05875L15.3449 16.7121L19.9424 30.7241L29.9487 1.04408C30.1199 0.533418 29.8487 0.161418 29.3424 0.213418H29.3412Z" fill="white"/>
</g>
<defs>
<clipPath id="clip0_2217_42">
<rect width="30" height="32" fill="white"/>
</clipPath>
</defs>
</svg>
