<svg width="30" height="32" viewBox="0 0 30 32" fill="none" xmlns="http://www.w3.org/2000/svg">
<g clip-path="url(#clip0_2217_58)">
<path d="M19.4787 31.3293C19.5624 31.5853 19.4249 31.7933 19.1699 31.7933H11.3424C10.8324 31.7933 10.2799 31.3787 10.1074 30.8667L0.0536954 1.04533C-0.131305 0.522667 0.186195 0.153334 0.659945 0.213334L8.64995 1.03467C9.1562 1.08667 9.70495 1.54533 9.87245 2.05733L19.4774 31.328L19.4787 31.3293ZM29.3412 0.213334L21.3512 1.03467C20.8437 1.08667 20.2962 1.54533 20.1287 2.05867L15.3449 16.712L19.9424 30.724L29.9487 1.044C30.1199 0.533334 29.8487 0.161334 29.3424 0.213334H29.3412Z" fill="black"/>
</g>
<defs>
<clipPath id="clip0_2217_58">
<rect width="30" height="32" fill="white"/>
</clipPath>
</defs>
</svg>
